<mxfile host="65bd71144e" pages="2">
    <diagram id="K5yjsOg8PNdeA_QVu2G7" name="Data Oriented">
        <mxGraphModel dx="1460" dy="698" grid="1" gridSize="10" guides="1" tooltips="1" connect="1" arrows="1" fold="1" page="1" pageScale="1" pageWidth="827" pageHeight="1169" math="0" shadow="0">
            <root>
                <mxCell id="0"/>
                <mxCell id="1" parent="0"/>
                <mxCell id="1iSqkxWD3PE7tt4dVIky-26" value="&lt;font style=&quot;font-size: 14px&quot;&gt;Encription with&lt;br&gt;user managed key&lt;/font&gt;" style="html=1;" parent="1" vertex="1">
                    <mxGeometry x="501.5" y="298" width="145" height="50" as="geometry"/>
                </mxCell>
                <mxCell id="G4Alo0HpObf9h4a9Ab1o-24" value="" style="outlineConnect=0;html=1;whiteSpace=wrap;fontSize=12;fontStyle=0;verticalAlign=top;align=center;dashed=1;spacingTop=3;strokeWidth=4;fillColor=none;strokeColor=#FF0000;" vertex="1" parent="1">
                    <mxGeometry x="490" y="284" width="170" height="78" as="geometry"/>
                </mxCell>
                <mxCell id="1iSqkxWD3PE7tt4dVIky-4" value="SERVER" style="shape=umlFrame;whiteSpace=wrap;html=1;width=90;height=40;" parent="1" vertex="1">
                    <mxGeometry x="90" y="822" width="710" height="300" as="geometry"/>
                </mxCell>
                <mxCell id="1iSqkxWD3PE7tt4dVIky-44" value="DB" style="shape=umlFrame;whiteSpace=wrap;html=1;width=50;height=25;" parent="1" vertex="1">
                    <mxGeometry x="343" y="932" width="410" height="150" as="geometry"/>
                </mxCell>
                <mxCell id="7" value="CLIENT" style="shape=umlFrame;whiteSpace=wrap;html=1;width=90;height=40;" vertex="1" parent="1">
                    <mxGeometry x="90" y="80" width="710" height="680" as="geometry"/>
                </mxCell>
                <mxCell id="1iSqkxWD3PE7tt4dVIky-35" value="" style="outlineConnect=0;html=1;whiteSpace=wrap;fontSize=12;fontStyle=0;verticalAlign=top;align=center;dashed=1;spacingTop=3;strokeWidth=4;fillColor=none;strokeColor=#FF0000;" parent="1" vertex="1">
                    <mxGeometry x="135.75" y="601" width="150" height="80" as="geometry"/>
                </mxCell>
                <mxCell id="1iSqkxWD3PE7tt4dVIky-1" value="" style="outlineConnect=0;html=1;whiteSpace=wrap;fontSize=12;fontStyle=0;verticalAlign=top;align=center;dashed=1;spacingTop=3;strokeWidth=4;fillColor=none;strokeColor=#FF0000;" parent="1" vertex="1">
                    <mxGeometry x="320" y="910" width="448" height="199" as="geometry"/>
                </mxCell>
                <mxCell id="1iSqkxWD3PE7tt4dVIky-3" value="" style="outlineConnect=0;html=1;whiteSpace=wrap;fontSize=12;fontStyle=0;verticalAlign=top;align=center;dashed=1;spacingTop=3;strokeWidth=4;fillColor=none;strokeColor=#FF0000;" parent="1" vertex="1">
                    <mxGeometry x="511.5" y="180" width="120" height="82" as="geometry"/>
                </mxCell>
                <mxCell id="1iSqkxWD3PE7tt4dVIky-5" value="" style="shape=cylinder3;whiteSpace=wrap;html=1;boundedLbl=1;backgroundOutline=1;size=15;" parent="1" vertex="1">
                    <mxGeometry x="363" y="959" width="100" height="100" as="geometry"/>
                </mxCell>
                <mxCell id="1iSqkxWD3PE7tt4dVIky-6" value="&lt;font style=&quot;font-size: 14px&quot;&gt;Team&lt;/font&gt;" style="html=1;" parent="1" vertex="1">
                    <mxGeometry x="670" y="127" width="110" height="50" as="geometry"/>
                </mxCell>
                <mxCell id="1iSqkxWD3PE7tt4dVIky-8" value="" style="shape=cylinder3;whiteSpace=wrap;html=1;boundedLbl=1;backgroundOutline=1;size=15;" parent="1" vertex="1">
                    <mxGeometry x="643" y="959" width="100" height="100" as="geometry"/>
                </mxCell>
                <mxCell id="1iSqkxWD3PE7tt4dVIky-9" value="&lt;font style=&quot;font-size: 14px&quot;&gt;Admin&lt;/font&gt;" style="html=1;" parent="1" vertex="1">
                    <mxGeometry x="378" y="1009" width="70" height="30" as="geometry"/>
                </mxCell>
                <mxCell id="1iSqkxWD3PE7tt4dVIky-10" value="" style="shape=cylinder3;whiteSpace=wrap;html=1;boundedLbl=1;backgroundOutline=1;size=15;" parent="1" vertex="1">
                    <mxGeometry x="503" y="959" width="100" height="100" as="geometry"/>
                </mxCell>
                <mxCell id="1iSqkxWD3PE7tt4dVIky-11" value="&lt;font style=&quot;font-size: 14px&quot;&gt;Data&lt;/font&gt;" style="html=1;" parent="1" vertex="1">
                    <mxGeometry x="518" y="1009" width="70" height="30" as="geometry"/>
                </mxCell>
                <mxCell id="1iSqkxWD3PE7tt4dVIky-12" value="&lt;font style=&quot;font-size: 14px&quot;&gt;Team&lt;/font&gt;" style="html=1;" parent="1" vertex="1">
                    <mxGeometry x="658" y="1009" width="70" height="30" as="geometry"/>
                </mxCell>
                <mxCell id="1iSqkxWD3PE7tt4dVIky-13" value="&lt;font style=&quot;font-size: 14px&quot;&gt;Personal&lt;br&gt;Data Store&lt;/font&gt;" style="html=1;" parent="1" vertex="1">
                    <mxGeometry x="529" y="198" width="90" height="50" as="geometry"/>
                </mxCell>
                <mxCell id="1iSqkxWD3PE7tt4dVIky-14" value="&lt;font style=&quot;font-size: 14px&quot;&gt;Handle&lt;/font&gt;" style="text;html=1;strokeColor=none;fillColor=none;align=center;verticalAlign=middle;whiteSpace=wrap;rounded=0;" parent="1" vertex="1">
                    <mxGeometry x="586" y="157" width="40" height="20" as="geometry"/>
                </mxCell>
                <mxCell id="1iSqkxWD3PE7tt4dVIky-15" value="&lt;font style=&quot;font-size: 14px&quot;&gt;Anonymous&lt;br&gt;reputation-based&lt;br&gt;Blacklist&lt;/font&gt;" style="html=1;" parent="1" vertex="1">
                    <mxGeometry x="532" y="490" width="140" height="70" as="geometry"/>
                </mxCell>
                <mxCell id="1iSqkxWD3PE7tt4dVIky-16" value="&lt;font style=&quot;font-size: 14px&quot;&gt;User&lt;/font&gt;" style="html=1;" parent="1" vertex="1">
                    <mxGeometry x="338" y="127" width="110" height="50" as="geometry"/>
                </mxCell>
                <mxCell id="1iSqkxWD3PE7tt4dVIky-17" style="edgeStyle=orthogonalEdgeStyle;rounded=0;orthogonalLoop=1;jettySize=auto;html=1;exitX=0;exitY=0.5;exitDx=0;exitDy=0;" parent="1" source="1iSqkxWD3PE7tt4dVIky-18" target="1iSqkxWD3PE7tt4dVIky-32" edge="1">
                    <mxGeometry relative="1" as="geometry"/>
                </mxCell>
                <mxCell id="1iSqkxWD3PE7tt4dVIky-18" value="&lt;font style=&quot;font-size: 14px&quot;&gt;&lt;b&gt;GUI&lt;/b&gt;&lt;/font&gt;" style="rounded=0;whiteSpace=wrap;html=1;" parent="1" vertex="1">
                    <mxGeometry x="379" y="616" width="80" height="50" as="geometry"/>
                </mxCell>
                <mxCell id="1iSqkxWD3PE7tt4dVIky-19" value="&lt;font style=&quot;font-size: 14px&quot;&gt;Use&lt;/font&gt;" style="text;html=1;strokeColor=none;fillColor=none;align=center;verticalAlign=middle;whiteSpace=wrap;rounded=0;" parent="1" vertex="1">
                    <mxGeometry x="570" y="262" width="40" height="20" as="geometry"/>
                </mxCell>
                <mxCell id="1iSqkxWD3PE7tt4dVIky-20" value="&lt;font style=&quot;font-size: 14px&quot;&gt;Admin&lt;/font&gt;" style="html=1;" parent="1" vertex="1">
                    <mxGeometry x="233" y="267" width="110" height="50" as="geometry"/>
                </mxCell>
                <mxCell id="1iSqkxWD3PE7tt4dVIky-21" value="&lt;span style=&quot;font-size: 14px&quot;&gt;Authenticator&lt;/span&gt;" style="html=1;" parent="1" vertex="1">
                    <mxGeometry x="516.5" y="391" width="115" height="50" as="geometry"/>
                </mxCell>
                <mxCell id="1iSqkxWD3PE7tt4dVIky-22" value="&lt;font style=&quot;font-size: 14px&quot;&gt;Interacts&lt;/font&gt;" style="text;html=1;strokeColor=none;fillColor=none;align=center;verticalAlign=middle;whiteSpace=wrap;rounded=0;" parent="1" vertex="1">
                    <mxGeometry x="569" y="364" width="80" height="20" as="geometry"/>
                </mxCell>
                <mxCell id="1iSqkxWD3PE7tt4dVIky-23" value="&lt;font color=&quot;#ff0000&quot; size=&quot;1&quot;&gt;&lt;b style=&quot;font-size: 14px&quot;&gt;HIDE&lt;/b&gt;&lt;/font&gt;" style="text;html=1;strokeColor=none;fillColor=none;align=center;verticalAlign=middle;whiteSpace=wrap;rounded=0;dashed=1;" parent="1" vertex="1">
                    <mxGeometry x="665.5" y="330" width="55" height="20" as="geometry"/>
                </mxCell>
                <mxCell id="1iSqkxWD3PE7tt4dVIky-24" value="&lt;font color=&quot;#ff0000&quot; size=&quot;1&quot;&gt;&lt;b style=&quot;font-size: 14px&quot;&gt;ABSTRACT&lt;/b&gt;&lt;/font&gt;" style="text;html=1;strokeColor=none;fillColor=none;align=center;verticalAlign=middle;whiteSpace=wrap;rounded=0;dashed=1;" parent="1" vertex="1">
                    <mxGeometry x="678" y="639" width="95" height="20" as="geometry"/>
                </mxCell>
                <mxCell id="1iSqkxWD3PE7tt4dVIky-25" value="&lt;font color=&quot;#ff0000&quot; size=&quot;1&quot;&gt;&lt;b style=&quot;font-size: 14px&quot;&gt;SEPARATE&lt;/b&gt;&lt;/font&gt;" style="text;html=1;strokeColor=none;fillColor=none;align=center;verticalAlign=middle;whiteSpace=wrap;rounded=0;dashed=1;" parent="1" vertex="1">
                    <mxGeometry x="644" y="222" width="70" height="20" as="geometry"/>
                </mxCell>
                <mxCell id="1iSqkxWD3PE7tt4dVIky-27" value="" style="outlineConnect=0;html=1;whiteSpace=wrap;fontSize=12;fontStyle=0;verticalAlign=top;align=center;dashed=1;spacingTop=3;strokeWidth=4;fillColor=none;strokeColor=#FF0000;" parent="1" vertex="1">
                    <mxGeometry x="603" y="669" width="137" height="80" as="geometry"/>
                </mxCell>
                <mxCell id="1iSqkxWD3PE7tt4dVIky-28" value="&lt;span style=&quot;font-size: 14px&quot;&gt;Location&lt;br&gt;granularity&lt;/span&gt;" style="html=1;" parent="1" vertex="1">
                    <mxGeometry x="623" y="681.5" width="97.5" height="55" as="geometry"/>
                </mxCell>
                <mxCell id="1iSqkxWD3PE7tt4dVIky-32" value="&lt;span style=&quot;font-size: 14px&quot;&gt;Metadata&lt;br&gt;Manager&lt;br&gt;&lt;/span&gt;" style="html=1;" parent="1" vertex="1">
                    <mxGeometry x="162" y="613.5" width="97.5" height="55" as="geometry"/>
                </mxCell>
                <mxCell id="1iSqkxWD3PE7tt4dVIky-36" value="&lt;font color=&quot;#ff0000&quot; size=&quot;1&quot;&gt;&lt;b style=&quot;font-size: 14px&quot;&gt;MINIMIZE&lt;/b&gt;&lt;/font&gt;" style="text;html=1;strokeColor=none;fillColor=none;align=center;verticalAlign=middle;whiteSpace=wrap;rounded=0;dashed=1;" parent="1" vertex="1">
                    <mxGeometry x="162" y="691" width="95" height="20" as="geometry"/>
                </mxCell>
                <mxCell id="1iSqkxWD3PE7tt4dVIky-37" value="&lt;span style=&quot;font-size: 14px&quot;&gt;Web Accessible&lt;br&gt;Files (web server)&lt;br&gt;&lt;/span&gt;" style="html=1;" parent="1" vertex="1">
                    <mxGeometry x="120" y="975.75" width="132.5" height="57.5" as="geometry"/>
                </mxCell>
                <mxCell id="1iSqkxWD3PE7tt4dVIky-38" value="" style="endArrow=classic;html=1;exitX=0.75;exitY=1;exitDx=0;exitDy=0;entryX=0;entryY=0.5;entryDx=0;entryDy=0;" parent="1" source="1iSqkxWD3PE7tt4dVIky-18" target="1iSqkxWD3PE7tt4dVIky-28" edge="1">
                    <mxGeometry width="50" height="50" relative="1" as="geometry">
                        <mxPoint x="493" y="697" as="sourcePoint"/>
                        <mxPoint x="543" y="647" as="targetPoint"/>
                        <Array as="points">
                            <mxPoint x="439" y="709"/>
                        </Array>
                    </mxGeometry>
                </mxCell>
                <mxCell id="1iSqkxWD3PE7tt4dVIky-39" value="&lt;font color=&quot;#ff0000&quot; size=&quot;1&quot;&gt;&lt;b style=&quot;font-size: 14px&quot;&gt;SEPARATE&lt;/b&gt;&lt;/font&gt;" style="text;html=1;strokeColor=none;fillColor=none;align=center;verticalAlign=middle;whiteSpace=wrap;rounded=0;dashed=1;" parent="1" vertex="1">
                    <mxGeometry x="665.5" y="880" width="95" height="20" as="geometry"/>
                </mxCell>
                <mxCell id="1iSqkxWD3PE7tt4dVIky-40" style="edgeStyle=orthogonalEdgeStyle;rounded=0;orthogonalLoop=1;jettySize=auto;html=1;exitX=0.5;exitY=1;exitDx=0;exitDy=0;" parent="1" source="1iSqkxWD3PE7tt4dVIky-18" target="1iSqkxWD3PE7tt4dVIky-18" edge="1">
                    <mxGeometry relative="1" as="geometry"/>
                </mxCell>
                <mxCell id="1iSqkxWD3PE7tt4dVIky-41" value="&lt;span style=&quot;font-size: 14px&quot;&gt;Request / Response&lt;/span&gt;" style="text;html=1;strokeColor=none;fillColor=none;align=center;verticalAlign=middle;whiteSpace=wrap;rounded=0;" parent="1" vertex="1">
                    <mxGeometry x="270" y="467" width="150" height="20" as="geometry"/>
                </mxCell>
                <mxCell id="1iSqkxWD3PE7tt4dVIky-42" value="&lt;font style=&quot;font-size: 14px&quot;&gt;Approves&lt;/font&gt;" style="text;html=1;strokeColor=none;fillColor=none;align=center;verticalAlign=middle;whiteSpace=wrap;rounded=0;" parent="1" vertex="1">
                    <mxGeometry x="135.75" y="447" width="80" height="20" as="geometry"/>
                </mxCell>
                <mxCell id="1iSqkxWD3PE7tt4dVIky-43" value="" style="endArrow=classic;startArrow=classic;html=1;entryX=0.25;entryY=1;entryDx=0;entryDy=0;exitX=0.5;exitY=0;exitDx=0;exitDy=0;" parent="1" target="1iSqkxWD3PE7tt4dVIky-18" edge="1" source="4qM6_cmpUiYH9ijakxLg-1">
                    <mxGeometry width="50" height="50" relative="1" as="geometry">
                        <mxPoint x="398" y="787" as="sourcePoint"/>
                        <mxPoint x="398" y="680" as="targetPoint"/>
                    </mxGeometry>
                </mxCell>
                <mxCell id="1iSqkxWD3PE7tt4dVIky-45" value="" style="endArrow=classic;startArrow=classic;html=1;entryX=1;entryY=0.5;entryDx=0;entryDy=0;" parent="1" target="1iSqkxWD3PE7tt4dVIky-37" edge="1">
                    <mxGeometry width="50" height="50" relative="1" as="geometry">
                        <mxPoint x="340" y="1004" as="sourcePoint"/>
                        <mxPoint x="543" y="828" as="targetPoint"/>
                    </mxGeometry>
                </mxCell>
                <mxCell id="1iSqkxWD3PE7tt4dVIky-46" value="" style="endArrow=classic;startArrow=classic;html=1;entryX=0.5;entryY=1;entryDx=0;entryDy=0;exitX=0.5;exitY=0;exitDx=0;exitDy=0;" parent="1" target="1iSqkxWD3PE7tt4dVIky-20" edge="1" source="1iSqkxWD3PE7tt4dVIky-18">
                    <mxGeometry width="50" height="50" relative="1" as="geometry">
                        <mxPoint x="400" y="490" as="sourcePoint"/>
                        <mxPoint x="293" y="377" as="targetPoint"/>
                        <Array as="points">
                            <mxPoint x="418" y="460"/>
                            <mxPoint x="288" y="460"/>
                        </Array>
                    </mxGeometry>
                </mxCell>
                <mxCell id="1iSqkxWD3PE7tt4dVIky-47" value="&lt;font style=&quot;font-size: 14px&quot;&gt;Send / Receive data&lt;/font&gt;" style="text;html=1;strokeColor=none;fillColor=none;align=center;verticalAlign=middle;whiteSpace=wrap;rounded=0;" parent="1" vertex="1">
                    <mxGeometry x="389.5" y="736" width="155" height="20" as="geometry"/>
                </mxCell>
                <mxCell id="1iSqkxWD3PE7tt4dVIky-49" value="" style="endArrow=classic;startArrow=classic;html=1;entryX=1;entryY=0.5;entryDx=0;entryDy=0;exitX=0.5;exitY=0;exitDx=0;exitDy=0;" parent="1" source="1iSqkxWD3PE7tt4dVIky-13" target="1iSqkxWD3PE7tt4dVIky-16" edge="1">
                    <mxGeometry width="50" height="50" relative="1" as="geometry">
                        <mxPoint x="434" y="267" as="sourcePoint"/>
                        <mxPoint x="519" y="152" as="targetPoint"/>
                        <Array as="points">
                            <mxPoint x="574" y="152"/>
                        </Array>
                    </mxGeometry>
                </mxCell>
                <mxCell id="1iSqkxWD3PE7tt4dVIky-50" value="" style="endArrow=classic;startArrow=classic;html=1;exitX=0;exitY=0.5;exitDx=0;exitDy=0;entryX=0.5;entryY=0;entryDx=0;entryDy=0;" parent="1" source="1iSqkxWD3PE7tt4dVIky-6" edge="1" target="1iSqkxWD3PE7tt4dVIky-13">
                    <mxGeometry width="50" height="50" relative="1" as="geometry">
                        <mxPoint x="639" y="152" as="sourcePoint"/>
                        <mxPoint x="574" y="207" as="targetPoint"/>
                        <Array as="points">
                            <mxPoint x="574" y="152"/>
                        </Array>
                    </mxGeometry>
                </mxCell>
                <mxCell id="4qM6_cmpUiYH9ijakxLg-1" value="&lt;font style=&quot;font-size: 14px&quot;&gt;Onion Routing&lt;/font&gt;" style="html=1;" parent="1" vertex="1">
                    <mxGeometry x="335" y="794" width="130" height="60" as="geometry"/>
                </mxCell>
                <mxCell id="3" value="" style="endArrow=classic;startArrow=classic;html=1;exitX=0.5;exitY=0;exitDx=0;exitDy=0;entryX=0.5;entryY=0;entryDx=0;entryDy=0;" edge="1" parent="1" source="1iSqkxWD3PE7tt4dVIky-32" target="1iSqkxWD3PE7tt4dVIky-6">
                    <mxGeometry width="50" height="50" relative="1" as="geometry">
                        <mxPoint x="160" y="590" as="sourcePoint"/>
                        <mxPoint x="180" y="360" as="targetPoint"/>
                        <Array as="points">
                            <mxPoint x="211" y="110"/>
                            <mxPoint x="725" y="110"/>
                        </Array>
                    </mxGeometry>
                </mxCell>
                <mxCell id="4" value="" style="endArrow=classic;startArrow=classic;html=1;exitX=0.5;exitY=0;exitDx=0;exitDy=0;entryX=0.5;entryY=0;entryDx=0;entryDy=0;" edge="1" parent="1" source="1iSqkxWD3PE7tt4dVIky-32" target="1iSqkxWD3PE7tt4dVIky-16">
                    <mxGeometry width="50" height="50" relative="1" as="geometry">
                        <mxPoint x="220.75" y="644.5" as="sourcePoint"/>
                        <mxPoint x="735" y="137" as="targetPoint"/>
                        <Array as="points">
                            <mxPoint x="211" y="110"/>
                            <mxPoint x="393" y="110"/>
                        </Array>
                    </mxGeometry>
                </mxCell>
                <mxCell id="8" value="" style="shape=cylinder3;whiteSpace=wrap;html=1;boundedLbl=1;backgroundOutline=1;size=15;" vertex="1" parent="1">
                    <mxGeometry x="388" y="290" width="62" height="81" as="geometry"/>
                </mxCell>
                <mxCell id="11" value="" style="endArrow=classic;startArrow=classic;html=1;entryX=0;entryY=0.5;entryDx=0;entryDy=0;exitX=0.5;exitY=0;exitDx=0;exitDy=0;exitPerimeter=0;" edge="1" parent="1" source="8" target="1iSqkxWD3PE7tt4dVIky-13">
                    <mxGeometry width="50" height="50" relative="1" as="geometry">
                        <mxPoint x="430" y="360" as="sourcePoint"/>
                        <mxPoint x="480" y="310" as="targetPoint"/>
                        <Array as="points">
                            <mxPoint x="419" y="223"/>
                        </Array>
                    </mxGeometry>
                </mxCell>
                <mxCell id="13" value="&lt;font style=&quot;font-size: 14px&quot;&gt;Data&lt;/font&gt;" style="html=1;" vertex="1" parent="1">
                    <mxGeometry x="398" y="330" width="42" height="30" as="geometry"/>
                </mxCell>
                <mxCell id="14" value="" style="endArrow=classic;startArrow=classic;html=1;entryX=0.5;entryY=1;entryDx=0;entryDy=0;exitX=1;exitY=0.5;exitDx=0;exitDy=0;" edge="1" parent="1" source="1iSqkxWD3PE7tt4dVIky-18" target="1iSqkxWD3PE7tt4dVIky-15">
                    <mxGeometry width="50" height="50" relative="1" as="geometry">
                        <mxPoint x="500" y="670" as="sourcePoint"/>
                        <mxPoint x="550" y="620" as="targetPoint"/>
                        <Array as="points">
                            <mxPoint x="602" y="640"/>
                        </Array>
                    </mxGeometry>
                </mxCell>
                <mxCell id="gDlCr9C1vI3CEG7ydMnS-18" value="" style="endArrow=classic;startArrow=classic;html=1;entryX=0.5;entryY=1;entryDx=0;entryDy=0;exitX=0.5;exitY=0;exitDx=0;exitDy=0;" edge="1" parent="1" source="1iSqkxWD3PE7tt4dVIky-37" target="4qM6_cmpUiYH9ijakxLg-1">
                    <mxGeometry width="50" height="50" relative="1" as="geometry">
                        <mxPoint x="230" y="950" as="sourcePoint"/>
                        <mxPoint x="280" y="900" as="targetPoint"/>
                        <Array as="points">
                            <mxPoint x="186" y="920"/>
                            <mxPoint x="400" y="920"/>
                        </Array>
                    </mxGeometry>
                </mxCell>
                <mxCell id="gDlCr9C1vI3CEG7ydMnS-19" value="&lt;font style=&quot;font-size: 14px&quot;&gt;Request / Response&lt;/font&gt;" style="text;html=1;strokeColor=none;fillColor=none;align=center;verticalAlign=middle;whiteSpace=wrap;rounded=0;" vertex="1" parent="1">
                    <mxGeometry x="168" y="896" width="155" height="20" as="geometry"/>
                </mxCell>
                <mxCell id="G4Alo0HpObf9h4a9Ab1o-14" value="" style="outlineConnect=0;html=1;whiteSpace=wrap;fontSize=12;fontStyle=0;verticalAlign=top;align=center;dashed=1;spacingTop=3;strokeWidth=4;fillColor=none;strokeColor=#FF0000;" vertex="1" parent="1">
                    <mxGeometry x="322" y="780" width="158" height="90" as="geometry"/>
                </mxCell>
                <mxCell id="G4Alo0HpObf9h4a9Ab1o-15" value="&lt;font color=&quot;#ff0000&quot; size=&quot;1&quot;&gt;&lt;b style=&quot;font-size: 14px&quot;&gt;HIDE&lt;/b&gt;&lt;/font&gt;" style="text;html=1;strokeColor=none;fillColor=none;align=center;verticalAlign=middle;whiteSpace=wrap;rounded=0;dashed=1;" vertex="1" parent="1">
                    <mxGeometry x="490" y="794" width="55" height="20" as="geometry"/>
                </mxCell>
                <mxCell id="G4Alo0HpObf9h4a9Ab1o-19" value="" style="endArrow=classic;startArrow=classic;html=1;exitX=0.5;exitY=0;exitDx=0;exitDy=0;entryX=0.5;entryY=1;entryDx=0;entryDy=0;" edge="1" parent="1" source="1iSqkxWD3PE7tt4dVIky-18" target="1iSqkxWD3PE7tt4dVIky-21">
                    <mxGeometry width="50" height="50" relative="1" as="geometry">
                        <mxPoint x="460" y="520" as="sourcePoint"/>
                        <mxPoint x="510" y="470" as="targetPoint"/>
                        <Array as="points">
                            <mxPoint x="419" y="460"/>
                            <mxPoint x="574" y="460"/>
                        </Array>
                    </mxGeometry>
                </mxCell>
                <mxCell id="G4Alo0HpObf9h4a9Ab1o-20" value="" style="endArrow=classic;startArrow=classic;html=1;entryX=0.5;entryY=1;entryDx=0;entryDy=0;exitX=0.5;exitY=0;exitDx=0;exitDy=0;" edge="1" parent="1" source="1iSqkxWD3PE7tt4dVIky-21" target="1iSqkxWD3PE7tt4dVIky-26">
                    <mxGeometry width="50" height="50" relative="1" as="geometry">
                        <mxPoint x="440" y="450" as="sourcePoint"/>
                        <mxPoint x="490" y="400" as="targetPoint"/>
                    </mxGeometry>
                </mxCell>
                <mxCell id="G4Alo0HpObf9h4a9Ab1o-21" value="" style="endArrow=classic;startArrow=classic;html=1;entryX=0.5;entryY=1;entryDx=0;entryDy=0;exitX=0.5;exitY=0;exitDx=0;exitDy=0;" edge="1" parent="1" source="1iSqkxWD3PE7tt4dVIky-26" target="1iSqkxWD3PE7tt4dVIky-13">
                    <mxGeometry width="50" height="50" relative="1" as="geometry">
                        <mxPoint x="581.5" y="381" as="sourcePoint"/>
                        <mxPoint x="581.5" y="354.99999999999994" as="targetPoint"/>
                    </mxGeometry>
                </mxCell>
                <mxCell id="p1J4vRZzQDZTDuAu25AL-14" value="" style="outlineConnect=0;html=1;whiteSpace=wrap;fontSize=12;fontStyle=0;verticalAlign=top;align=center;dashed=1;spacingTop=3;strokeWidth=4;fillColor=none;strokeColor=#FF0000;" vertex="1" parent="1">
                    <mxGeometry x="505.5" y="480" width="184.5" height="100" as="geometry"/>
                </mxCell>
                <mxCell id="p1J4vRZzQDZTDuAu25AL-15" value="&lt;font color=&quot;#ff0000&quot; size=&quot;1&quot;&gt;&lt;b style=&quot;font-size: 14px&quot;&gt;HIDE&lt;/b&gt;&lt;/font&gt;" style="text;html=1;strokeColor=none;fillColor=none;align=center;verticalAlign=middle;whiteSpace=wrap;rounded=0;dashed=1;" vertex="1" parent="1">
                    <mxGeometry x="698" y="490" width="55" height="20" as="geometry"/>
                </mxCell>
            </root>
        </mxGraphModel>
    </diagram>
    <diagram id="S0UW-dQNR-k9H2ENkTLo" name="Process Oriented">
        <mxGraphModel dx="1043" dy="499" grid="1" gridSize="10" guides="1" tooltips="1" connect="1" arrows="1" fold="1" page="1" pageScale="1" pageWidth="827" pageHeight="1169" math="0" shadow="0">
            <root>
                <mxCell id="XG-XlW9RPorfaf75TnAM-0"/>
                <mxCell id="XG-XlW9RPorfaf75TnAM-1" parent="XG-XlW9RPorfaf75TnAM-0"/>
                <mxCell id="gT43t09qGAdpZJtZd_hw-2" value="CLIENT" style="shape=umlFrame;whiteSpace=wrap;html=1;width=90;height=40;" vertex="1" parent="XG-XlW9RPorfaf75TnAM-1">
                    <mxGeometry x="24" y="70" width="726" height="680" as="geometry"/>
                </mxCell>
                <mxCell id="gT43t09qGAdpZJtZd_hw-0" value="DB" style="shape=umlFrame;whiteSpace=wrap;html=1;width=50;height=25;" vertex="1" parent="XG-XlW9RPorfaf75TnAM-1">
                    <mxGeometry x="277" y="861" width="410" height="150" as="geometry"/>
                </mxCell>
                <mxCell id="gT43t09qGAdpZJtZd_hw-1" value="SERVER" style="shape=umlFrame;whiteSpace=wrap;html=1;width=90;height=40;" vertex="1" parent="XG-XlW9RPorfaf75TnAM-1">
                    <mxGeometry x="24" y="787" width="726" height="286" as="geometry"/>
                </mxCell>
                <mxCell id="gT43t09qGAdpZJtZd_hw-3" value="" style="outlineConnect=0;html=1;whiteSpace=wrap;fontSize=12;fontStyle=0;verticalAlign=top;align=center;dashed=1;spacingTop=3;strokeWidth=4;fillColor=none;strokeColor=#FF0000;" vertex="1" parent="XG-XlW9RPorfaf75TnAM-1">
                    <mxGeometry x="83" y="560" width="168" height="84" as="geometry"/>
                </mxCell>
                <mxCell id="gT43t09qGAdpZJtZd_hw-6" value="" style="outlineConnect=0;html=1;whiteSpace=wrap;fontSize=12;fontStyle=0;verticalAlign=top;align=center;dashed=1;spacingTop=3;strokeWidth=4;fillColor=none;strokeColor=#FF0000;" vertex="1" parent="XG-XlW9RPorfaf75TnAM-1">
                    <mxGeometry x="424" y="155" width="170" height="165" as="geometry"/>
                </mxCell>
                <mxCell id="gT43t09qGAdpZJtZd_hw-7" value="" style="shape=cylinder3;whiteSpace=wrap;html=1;boundedLbl=1;backgroundOutline=1;size=15;" vertex="1" parent="XG-XlW9RPorfaf75TnAM-1">
                    <mxGeometry x="297" y="891" width="100" height="100" as="geometry"/>
                </mxCell>
                <mxCell id="gT43t09qGAdpZJtZd_hw-8" value="&lt;font style=&quot;font-size: 14px&quot;&gt;Team&lt;/font&gt;" style="html=1;" vertex="1" parent="XG-XlW9RPorfaf75TnAM-1">
                    <mxGeometry x="604" y="90" width="110" height="50" as="geometry"/>
                </mxCell>
                <mxCell id="gT43t09qGAdpZJtZd_hw-9" value="" style="shape=cylinder3;whiteSpace=wrap;html=1;boundedLbl=1;backgroundOutline=1;size=15;" vertex="1" parent="XG-XlW9RPorfaf75TnAM-1">
                    <mxGeometry x="577" y="891" width="100" height="100" as="geometry"/>
                </mxCell>
                <mxCell id="gT43t09qGAdpZJtZd_hw-10" value="&lt;font style=&quot;font-size: 14px&quot;&gt;Admin&lt;/font&gt;" style="html=1;" vertex="1" parent="XG-XlW9RPorfaf75TnAM-1">
                    <mxGeometry x="312" y="941" width="70" height="30" as="geometry"/>
                </mxCell>
                <mxCell id="gT43t09qGAdpZJtZd_hw-11" value="" style="shape=cylinder3;whiteSpace=wrap;html=1;boundedLbl=1;backgroundOutline=1;size=15;" vertex="1" parent="XG-XlW9RPorfaf75TnAM-1">
                    <mxGeometry x="437" y="891" width="100" height="100" as="geometry"/>
                </mxCell>
                <mxCell id="gT43t09qGAdpZJtZd_hw-12" value="&lt;font style=&quot;font-size: 14px&quot;&gt;Data&lt;/font&gt;" style="html=1;" vertex="1" parent="XG-XlW9RPorfaf75TnAM-1">
                    <mxGeometry x="452" y="941" width="70" height="30" as="geometry"/>
                </mxCell>
                <mxCell id="gT43t09qGAdpZJtZd_hw-13" value="&lt;font style=&quot;font-size: 14px&quot;&gt;Team&lt;/font&gt;" style="html=1;" vertex="1" parent="XG-XlW9RPorfaf75TnAM-1">
                    <mxGeometry x="592" y="941" width="70" height="30" as="geometry"/>
                </mxCell>
                <mxCell id="gT43t09qGAdpZJtZd_hw-14" value="&lt;font style=&quot;font-size: 14px&quot;&gt;Personal&lt;br&gt;Data Store&lt;/font&gt;" style="html=1;" vertex="1" parent="XG-XlW9RPorfaf75TnAM-1">
                    <mxGeometry x="463" y="170" width="90" height="50" as="geometry"/>
                </mxCell>
                <mxCell id="gT43t09qGAdpZJtZd_hw-15" value="&lt;font style=&quot;font-size: 14px&quot;&gt;Handle&lt;/font&gt;" style="text;html=1;strokeColor=none;fillColor=none;align=center;verticalAlign=middle;whiteSpace=wrap;rounded=0;" vertex="1" parent="XG-XlW9RPorfaf75TnAM-1">
                    <mxGeometry x="520" y="126" width="40" height="20" as="geometry"/>
                </mxCell>
                <mxCell id="gT43t09qGAdpZJtZd_hw-17" value="&lt;font style=&quot;font-size: 14px&quot;&gt;User&lt;/font&gt;" style="html=1;" vertex="1" parent="XG-XlW9RPorfaf75TnAM-1">
                    <mxGeometry x="248" y="90" width="110" height="50" as="geometry"/>
                </mxCell>
                <mxCell id="gT43t09qGAdpZJtZd_hw-18" style="edgeStyle=orthogonalEdgeStyle;rounded=0;orthogonalLoop=1;jettySize=auto;html=1;exitX=0;exitY=0.5;exitDx=0;exitDy=0;entryX=1;entryY=0.5;entryDx=0;entryDy=0;" edge="1" parent="XG-XlW9RPorfaf75TnAM-1" source="gT43t09qGAdpZJtZd_hw-19" target="N2QzAyiejGj7b37JMif3-3">
                    <mxGeometry relative="1" as="geometry">
                        <mxPoint x="193.5" y="604" as="targetPoint"/>
                    </mxGeometry>
                </mxCell>
                <mxCell id="gT43t09qGAdpZJtZd_hw-19" value="&lt;font style=&quot;font-size: 14px&quot;&gt;&lt;b&gt;GUI&lt;/b&gt;&lt;/font&gt;" style="rounded=0;whiteSpace=wrap;html=1;" vertex="1" parent="XG-XlW9RPorfaf75TnAM-1">
                    <mxGeometry x="313" y="579" width="80" height="50" as="geometry"/>
                </mxCell>
                <mxCell id="gT43t09qGAdpZJtZd_hw-20" value="&lt;font style=&quot;font-size: 14px&quot;&gt;Use&lt;/font&gt;" style="text;html=1;strokeColor=none;fillColor=none;align=center;verticalAlign=middle;whiteSpace=wrap;rounded=0;" vertex="1" parent="XG-XlW9RPorfaf75TnAM-1">
                    <mxGeometry x="508" y="227" width="40" height="20" as="geometry"/>
                </mxCell>
                <mxCell id="gT43t09qGAdpZJtZd_hw-21" value="&lt;font style=&quot;font-size: 14px&quot;&gt;Admin&lt;/font&gt;" style="html=1;" vertex="1" parent="XG-XlW9RPorfaf75TnAM-1">
                    <mxGeometry x="99.5" y="231" width="103" height="50" as="geometry"/>
                </mxCell>
                <mxCell id="gT43t09qGAdpZJtZd_hw-22" value="&lt;span style=&quot;font-size: 14px&quot;&gt;Authenticator&lt;/span&gt;" style="html=1;" vertex="1" parent="XG-XlW9RPorfaf75TnAM-1">
                    <mxGeometry x="450.5" y="350" width="115" height="50" as="geometry"/>
                </mxCell>
                <mxCell id="gT43t09qGAdpZJtZd_hw-23" value="&lt;font style=&quot;font-size: 14px&quot;&gt;Interacts&lt;/font&gt;" style="text;html=1;strokeColor=none;fillColor=none;align=center;verticalAlign=middle;whiteSpace=wrap;rounded=0;" vertex="1" parent="XG-XlW9RPorfaf75TnAM-1">
                    <mxGeometry x="500.5" y="322" width="80" height="20" as="geometry"/>
                </mxCell>
                <mxCell id="gT43t09qGAdpZJtZd_hw-25" value="&lt;font color=&quot;#ff0000&quot; size=&quot;1&quot;&gt;&lt;b style=&quot;font-size: 14px&quot;&gt;ENFORCE&lt;/b&gt;&lt;/font&gt;" style="text;html=1;strokeColor=none;fillColor=none;align=center;verticalAlign=middle;whiteSpace=wrap;rounded=0;dashed=1;" vertex="1" parent="XG-XlW9RPorfaf75TnAM-1">
                    <mxGeometry x="94" y="530" width="95" height="20" as="geometry"/>
                </mxCell>
                <mxCell id="gT43t09qGAdpZJtZd_hw-26" value="&lt;font color=&quot;#ff0000&quot; size=&quot;1&quot;&gt;&lt;b style=&quot;font-size: 14px&quot;&gt;CONTROL&lt;/b&gt;&lt;/font&gt;" style="text;html=1;strokeColor=none;fillColor=none;align=center;verticalAlign=middle;whiteSpace=wrap;rounded=0;dashed=1;" vertex="1" parent="XG-XlW9RPorfaf75TnAM-1">
                    <mxGeometry x="414" y="126" width="76" height="20" as="geometry"/>
                </mxCell>
                <mxCell id="gT43t09qGAdpZJtZd_hw-27" value="&lt;font style=&quot;font-size: 14px&quot;&gt;Encription with&lt;br&gt;user managed key&lt;/font&gt;" style="html=1;" vertex="1" parent="XG-XlW9RPorfaf75TnAM-1">
                    <mxGeometry x="435.5" y="253" width="145" height="50" as="geometry"/>
                </mxCell>
                <mxCell id="gT43t09qGAdpZJtZd_hw-28" value="" style="outlineConnect=0;html=1;whiteSpace=wrap;fontSize=12;fontStyle=0;verticalAlign=top;align=center;dashed=1;spacingTop=3;strokeWidth=4;fillColor=none;strokeColor=#FF0000;" vertex="1" parent="XG-XlW9RPorfaf75TnAM-1">
                    <mxGeometry x="518" y="632" width="190" height="80" as="geometry"/>
                </mxCell>
                <mxCell id="gT43t09qGAdpZJtZd_hw-31" value="&lt;font color=&quot;#ff0000&quot;&gt;&lt;span style=&quot;font-size: 14px&quot;&gt;&lt;b&gt;DEMONSTRATE&lt;/b&gt;&lt;/span&gt;&lt;/font&gt;" style="text;html=1;strokeColor=none;fillColor=none;align=center;verticalAlign=middle;whiteSpace=wrap;rounded=0;dashed=1;" vertex="1" parent="XG-XlW9RPorfaf75TnAM-1">
                    <mxGeometry x="622" y="602" width="128" height="20" as="geometry"/>
                </mxCell>
                <mxCell id="gT43t09qGAdpZJtZd_hw-32" value="&lt;span style=&quot;font-size: 14px&quot;&gt;Web Accessible&lt;br&gt;Files (web server)&lt;br&gt;&lt;/span&gt;" style="html=1;" vertex="1" parent="XG-XlW9RPorfaf75TnAM-1">
                    <mxGeometry x="99.5" y="907.25" width="132.5" height="57.5" as="geometry"/>
                </mxCell>
                <mxCell id="gT43t09qGAdpZJtZd_hw-33" value="" style="endArrow=classic;html=1;exitX=0.75;exitY=1;exitDx=0;exitDy=0;entryX=0;entryY=0.5;entryDx=0;entryDy=0;" edge="1" parent="XG-XlW9RPorfaf75TnAM-1" source="gT43t09qGAdpZJtZd_hw-19" target="sU7hfyd7dcEPpx8tr28K-0">
                    <mxGeometry width="50" height="50" relative="1" as="geometry">
                        <mxPoint x="427" y="660" as="sourcePoint"/>
                        <mxPoint x="557.0000000000002" y="672" as="targetPoint"/>
                        <Array as="points">
                            <mxPoint x="373" y="672"/>
                        </Array>
                    </mxGeometry>
                </mxCell>
                <mxCell id="gT43t09qGAdpZJtZd_hw-35" style="edgeStyle=orthogonalEdgeStyle;rounded=0;orthogonalLoop=1;jettySize=auto;html=1;exitX=0.5;exitY=1;exitDx=0;exitDy=0;" edge="1" parent="XG-XlW9RPorfaf75TnAM-1" source="gT43t09qGAdpZJtZd_hw-19" target="gT43t09qGAdpZJtZd_hw-19">
                    <mxGeometry relative="1" as="geometry"/>
                </mxCell>
                <mxCell id="gT43t09qGAdpZJtZd_hw-36" value="&lt;span style=&quot;font-size: 14px&quot;&gt;Request / Response&lt;/span&gt;" style="text;html=1;strokeColor=none;fillColor=none;align=center;verticalAlign=middle;whiteSpace=wrap;rounded=0;" vertex="1" parent="XG-XlW9RPorfaf75TnAM-1">
                    <mxGeometry x="232" y="457" width="150" height="20" as="geometry"/>
                </mxCell>
                <mxCell id="gT43t09qGAdpZJtZd_hw-39" value="" style="endArrow=classic;startArrow=classic;html=1;entryX=1;entryY=0.5;entryDx=0;entryDy=0;exitX=-0.009;exitY=0.504;exitDx=0;exitDy=0;exitPerimeter=0;" edge="1" parent="XG-XlW9RPorfaf75TnAM-1" source="gT43t09qGAdpZJtZd_hw-0" target="gT43t09qGAdpZJtZd_hw-32">
                    <mxGeometry width="50" height="50" relative="1" as="geometry">
                        <mxPoint x="427" y="841" as="sourcePoint"/>
                        <mxPoint x="477" y="791" as="targetPoint"/>
                    </mxGeometry>
                </mxCell>
                <mxCell id="gT43t09qGAdpZJtZd_hw-40" value="" style="endArrow=classic;startArrow=classic;html=1;entryX=0.5;entryY=1;entryDx=0;entryDy=0;exitX=0.5;exitY=0;exitDx=0;exitDy=0;" edge="1" parent="XG-XlW9RPorfaf75TnAM-1" target="gT43t09qGAdpZJtZd_hw-21">
                    <mxGeometry width="50" height="50" relative="1" as="geometry">
                        <mxPoint x="352.9999999999999" y="579" as="sourcePoint"/>
                        <mxPoint x="206.5" y="281" as="targetPoint"/>
                        <Array as="points">
                            <mxPoint x="353" y="490"/>
                            <mxPoint x="151" y="490"/>
                        </Array>
                    </mxGeometry>
                </mxCell>
                <mxCell id="gT43t09qGAdpZJtZd_hw-42" value="" style="endArrow=classic;startArrow=classic;html=1;entryX=1;entryY=0.5;entryDx=0;entryDy=0;exitX=0.5;exitY=0;exitDx=0;exitDy=0;" edge="1" parent="XG-XlW9RPorfaf75TnAM-1" source="gT43t09qGAdpZJtZd_hw-14" target="gT43t09qGAdpZJtZd_hw-17">
                    <mxGeometry width="50" height="50" relative="1" as="geometry">
                        <mxPoint x="368" y="230" as="sourcePoint"/>
                        <mxPoint x="453" y="115" as="targetPoint"/>
                        <Array as="points">
                            <mxPoint x="508" y="115"/>
                        </Array>
                    </mxGeometry>
                </mxCell>
                <mxCell id="gT43t09qGAdpZJtZd_hw-43" value="" style="endArrow=classic;startArrow=classic;html=1;exitX=0;exitY=0.5;exitDx=0;exitDy=0;" edge="1" parent="XG-XlW9RPorfaf75TnAM-1" source="gT43t09qGAdpZJtZd_hw-8">
                    <mxGeometry width="50" height="50" relative="1" as="geometry">
                        <mxPoint x="573" y="115" as="sourcePoint"/>
                        <mxPoint x="508" y="170" as="targetPoint"/>
                        <Array as="points">
                            <mxPoint x="508" y="115"/>
                        </Array>
                    </mxGeometry>
                </mxCell>
                <mxCell id="gT43t09qGAdpZJtZd_hw-50" value="" style="shape=cylinder3;whiteSpace=wrap;html=1;boundedLbl=1;backgroundOutline=1;size=15;" vertex="1" parent="XG-XlW9RPorfaf75TnAM-1">
                    <mxGeometry x="352" y="253" width="62" height="81" as="geometry"/>
                </mxCell>
                <mxCell id="gT43t09qGAdpZJtZd_hw-51" value="" style="endArrow=classic;startArrow=classic;html=1;entryX=0;entryY=0.5;entryDx=0;entryDy=0;exitX=0.5;exitY=0;exitDx=0;exitDy=0;exitPerimeter=0;" edge="1" parent="XG-XlW9RPorfaf75TnAM-1" source="gT43t09qGAdpZJtZd_hw-50" target="gT43t09qGAdpZJtZd_hw-14">
                    <mxGeometry width="50" height="50" relative="1" as="geometry">
                        <mxPoint x="364" y="323" as="sourcePoint"/>
                        <mxPoint x="414" y="273" as="targetPoint"/>
                        <Array as="points">
                            <mxPoint x="383" y="195"/>
                        </Array>
                    </mxGeometry>
                </mxCell>
                <mxCell id="gT43t09qGAdpZJtZd_hw-52" value="&lt;font style=&quot;font-size: 14px&quot;&gt;Data&lt;/font&gt;" style="html=1;" vertex="1" parent="XG-XlW9RPorfaf75TnAM-1">
                    <mxGeometry x="364" y="293" width="42" height="30" as="geometry"/>
                </mxCell>
                <mxCell id="gT43t09qGAdpZJtZd_hw-53" value="" style="endArrow=classic;startArrow=classic;html=1;entryX=0.5;entryY=1;entryDx=0;entryDy=0;exitX=1;exitY=0.25;exitDx=0;exitDy=0;" edge="1" parent="XG-XlW9RPorfaf75TnAM-1" source="gT43t09qGAdpZJtZd_hw-19" target="7qF-srOi28iK2Zp3CZuF-1">
                    <mxGeometry width="50" height="50" relative="1" as="geometry">
                        <mxPoint x="434" y="633" as="sourcePoint"/>
                        <mxPoint x="536" y="523" as="targetPoint"/>
                        <Array as="points">
                            <mxPoint x="472" y="592"/>
                        </Array>
                    </mxGeometry>
                </mxCell>
                <mxCell id="L2slIy00u0LhDkn567sA-0" value="" style="endArrow=classic;startArrow=classic;html=1;entryX=0.5;entryY=1;entryDx=0;entryDy=0;exitX=0.5;exitY=0;exitDx=0;exitDy=0;" edge="1" parent="XG-XlW9RPorfaf75TnAM-1" source="gT43t09qGAdpZJtZd_hw-27" target="gT43t09qGAdpZJtZd_hw-14">
                    <mxGeometry width="50" height="50" relative="1" as="geometry">
                        <mxPoint x="274" y="240" as="sourcePoint"/>
                        <mxPoint x="324" y="190" as="targetPoint"/>
                    </mxGeometry>
                </mxCell>
                <mxCell id="jEUCucle028VxzxPWsZQ-0" value="" style="endArrow=classic;startArrow=classic;html=1;entryX=0.5;entryY=1;entryDx=0;entryDy=0;exitX=0.5;exitY=0;exitDx=0;exitDy=0;" edge="1" parent="XG-XlW9RPorfaf75TnAM-1" source="gT43t09qGAdpZJtZd_hw-22" target="gT43t09qGAdpZJtZd_hw-27">
                    <mxGeometry width="50" height="50" relative="1" as="geometry">
                        <mxPoint x="304" y="420" as="sourcePoint"/>
                        <mxPoint x="354" y="370" as="targetPoint"/>
                    </mxGeometry>
                </mxCell>
                <mxCell id="7qF-srOi28iK2Zp3CZuF-0" value="" style="outlineConnect=0;html=1;whiteSpace=wrap;fontSize=12;fontStyle=0;verticalAlign=top;align=center;dashed=1;spacingTop=3;strokeWidth=4;fillColor=none;strokeColor=#FF0000;" vertex="1" parent="XG-XlW9RPorfaf75TnAM-1">
                    <mxGeometry x="400" y="457" width="300" height="83" as="geometry"/>
                </mxCell>
                <mxCell id="7qF-srOi28iK2Zp3CZuF-1" value="&lt;span style=&quot;font-size: 14px&quot;&gt;Unusual Activities&lt;/span&gt;" style="html=1;" vertex="1" parent="XG-XlW9RPorfaf75TnAM-1">
                    <mxGeometry x="407" y="467" width="130" height="55" as="geometry"/>
                </mxCell>
                <mxCell id="7qF-srOi28iK2Zp3CZuF-2" value="&lt;font color=&quot;#ff0000&quot; size=&quot;1&quot;&gt;&lt;b style=&quot;font-size: 14px&quot;&gt;INFORM&lt;/b&gt;&lt;/font&gt;" style="text;html=1;strokeColor=none;fillColor=none;align=center;verticalAlign=middle;whiteSpace=wrap;rounded=0;dashed=1;" vertex="1" parent="XG-XlW9RPorfaf75TnAM-1">
                    <mxGeometry x="520" y="544" width="55" height="20" as="geometry"/>
                </mxCell>
                <mxCell id="sU7hfyd7dcEPpx8tr28K-0" value="&lt;span style=&quot;font-size: 14px&quot;&gt;Federated Privacy&lt;br&gt;Assessment&lt;br&gt;&lt;/span&gt;" style="html=1;" vertex="1" parent="XG-XlW9RPorfaf75TnAM-1">
                    <mxGeometry x="548" y="644.5" width="130" height="55" as="geometry"/>
                </mxCell>
                <mxCell id="sU7hfyd7dcEPpx8tr28K-1" value="Authority" style="shape=umlActor;verticalLabelPosition=bottom;verticalAlign=top;html=1;outlineConnect=0;" vertex="1" parent="XG-XlW9RPorfaf75TnAM-1">
                    <mxGeometry x="770" y="644.5" width="30" height="60" as="geometry"/>
                </mxCell>
                <mxCell id="sU7hfyd7dcEPpx8tr28K-4" value="" style="endArrow=classic;html=1;exitX=1;exitY=0.5;exitDx=0;exitDy=0;" edge="1" parent="XG-XlW9RPorfaf75TnAM-1" source="sU7hfyd7dcEPpx8tr28K-0">
                    <mxGeometry width="50" height="50" relative="1" as="geometry">
                        <mxPoint x="740" y="690" as="sourcePoint"/>
                        <mxPoint x="770" y="672" as="targetPoint"/>
                    </mxGeometry>
                </mxCell>
                <mxCell id="sU7hfyd7dcEPpx8tr28K-6" value="" style="endArrow=classic;html=1;exitX=0.5;exitY=0;exitDx=0;exitDy=0;entryX=0.25;entryY=1;entryDx=0;entryDy=0;" edge="1" parent="XG-XlW9RPorfaf75TnAM-1" source="7qF-srOi28iK2Zp3CZuF-1" target="gT43t09qGAdpZJtZd_hw-8">
                    <mxGeometry width="50" height="50" relative="1" as="geometry">
                        <mxPoint x="630" y="410" as="sourcePoint"/>
                        <mxPoint x="680" y="360" as="targetPoint"/>
                        <Array as="points">
                            <mxPoint x="472" y="420"/>
                            <mxPoint x="632" y="420"/>
                        </Array>
                    </mxGeometry>
                </mxCell>
                <mxCell id="sU7hfyd7dcEPpx8tr28K-7" value="" style="endArrow=classic;html=1;exitX=0.5;exitY=0;exitDx=0;exitDy=0;entryX=0.75;entryY=1;entryDx=0;entryDy=0;" edge="1" parent="XG-XlW9RPorfaf75TnAM-1" source="7qF-srOi28iK2Zp3CZuF-1" target="gT43t09qGAdpZJtZd_hw-17">
                    <mxGeometry width="50" height="50" relative="1" as="geometry">
                        <mxPoint x="535" y="477" as="sourcePoint"/>
                        <mxPoint x="669" y="150" as="targetPoint"/>
                        <Array as="points">
                            <mxPoint x="472" y="420"/>
                            <mxPoint x="430" y="420"/>
                            <mxPoint x="331" y="420"/>
                        </Array>
                    </mxGeometry>
                </mxCell>
                <mxCell id="sU7hfyd7dcEPpx8tr28K-8" value="&lt;font style=&quot;font-size: 14px&quot;&gt;Inform&lt;/font&gt;" style="text;html=1;strokeColor=none;fillColor=none;align=center;verticalAlign=middle;whiteSpace=wrap;rounded=0;" vertex="1" parent="XG-XlW9RPorfaf75TnAM-1">
                    <mxGeometry x="618" y="355" width="80" height="20" as="geometry"/>
                </mxCell>
                <mxCell id="sU7hfyd7dcEPpx8tr28K-10" value="&lt;font style=&quot;font-size: 14px&quot;&gt;Inform&lt;/font&gt;" style="text;html=1;strokeColor=none;fillColor=none;align=center;verticalAlign=middle;whiteSpace=wrap;rounded=0;" vertex="1" parent="XG-XlW9RPorfaf75TnAM-1">
                    <mxGeometry x="262" y="365" width="80" height="20" as="geometry"/>
                </mxCell>
                <mxCell id="sU7hfyd7dcEPpx8tr28K-12" value="&lt;span style=&quot;font-size: 14px&quot;&gt;Data Breach&lt;br&gt;Notification Pattern&lt;br&gt;&lt;/span&gt;" style="html=1;" vertex="1" parent="XG-XlW9RPorfaf75TnAM-1">
                    <mxGeometry x="557" y="467" width="133" height="55" as="geometry"/>
                </mxCell>
                <mxCell id="sU7hfyd7dcEPpx8tr28K-13" value="" style="endArrow=classic;startArrow=classic;html=1;entryX=0.5;entryY=1;entryDx=0;entryDy=0;exitX=1;exitY=0.75;exitDx=0;exitDy=0;" edge="1" parent="XG-XlW9RPorfaf75TnAM-1" source="gT43t09qGAdpZJtZd_hw-19" target="sU7hfyd7dcEPpx8tr28K-12">
                    <mxGeometry width="50" height="50" relative="1" as="geometry">
                        <mxPoint x="393" y="617" as="sourcePoint"/>
                        <mxPoint x="482" y="532" as="targetPoint"/>
                        <Array as="points">
                            <mxPoint x="624" y="617"/>
                        </Array>
                    </mxGeometry>
                </mxCell>
                <mxCell id="sU7hfyd7dcEPpx8tr28K-15" value="" style="endArrow=classic;html=1;exitX=0.5;exitY=0;exitDx=0;exitDy=0;entryX=0.75;entryY=1;entryDx=0;entryDy=0;" edge="1" parent="XG-XlW9RPorfaf75TnAM-1" source="sU7hfyd7dcEPpx8tr28K-12" target="gT43t09qGAdpZJtZd_hw-8">
                    <mxGeometry width="50" height="50" relative="1" as="geometry">
                        <mxPoint x="482" y="477" as="sourcePoint"/>
                        <mxPoint x="669" y="140" as="targetPoint"/>
                        <Array as="points">
                            <mxPoint x="624" y="440"/>
                            <mxPoint x="687" y="440"/>
                        </Array>
                    </mxGeometry>
                </mxCell>
                <mxCell id="sU7hfyd7dcEPpx8tr28K-19" value="" style="endArrow=classic;html=1;exitX=0.5;exitY=0;exitDx=0;exitDy=0;entryX=0.25;entryY=1;entryDx=0;entryDy=0;" edge="1" parent="XG-XlW9RPorfaf75TnAM-1" source="sU7hfyd7dcEPpx8tr28K-12" target="gT43t09qGAdpZJtZd_hw-17">
                    <mxGeometry width="50" height="50" relative="1" as="geometry">
                        <mxPoint x="446" y="477" as="sourcePoint"/>
                        <mxPoint x="301" y="150.00000000000006" as="targetPoint"/>
                        <Array as="points">
                            <mxPoint x="624" y="440"/>
                            <mxPoint x="520" y="440"/>
                            <mxPoint x="300" y="440"/>
                            <mxPoint x="276" y="440"/>
                        </Array>
                    </mxGeometry>
                </mxCell>
                <mxCell id="N2QzAyiejGj7b37JMif3-0" value="&lt;font style=&quot;font-size: 14px&quot;&gt;Request&lt;/font&gt;" style="text;html=1;strokeColor=none;fillColor=none;align=center;verticalAlign=middle;whiteSpace=wrap;rounded=0;" vertex="1" parent="XG-XlW9RPorfaf75TnAM-1">
                    <mxGeometry x="58" y="723" width="80" height="20" as="geometry"/>
                </mxCell>
                <mxCell id="N2QzAyiejGj7b37JMif3-2" value="" style="endArrow=classic;html=1;entryX=0.25;entryY=1;entryDx=0;entryDy=0;exitX=0.75;exitY=0;exitDx=0;exitDy=0;" edge="1" parent="XG-XlW9RPorfaf75TnAM-1" source="gT43t09qGAdpZJtZd_hw-32" target="gT43t09qGAdpZJtZd_hw-19">
                    <mxGeometry width="50" height="50" relative="1" as="geometry">
                        <mxPoint x="240" y="750" as="sourcePoint"/>
                        <mxPoint x="360" y="630" as="targetPoint"/>
                        <Array as="points">
                            <mxPoint x="199" y="840"/>
                            <mxPoint x="333" y="840"/>
                        </Array>
                    </mxGeometry>
                </mxCell>
                <mxCell id="N2QzAyiejGj7b37JMif3-3" value="&lt;span style=&quot;font-size: 14px&quot;&gt;Sticky Policies&lt;br&gt;&lt;/span&gt;" style="html=1;" vertex="1" parent="XG-XlW9RPorfaf75TnAM-1">
                    <mxGeometry x="99" y="576" width="130" height="55" as="geometry"/>
                </mxCell>
                <mxCell id="N2QzAyiejGj7b37JMif3-5" value="" style="endArrow=classic;html=1;entryX=0.25;entryY=0;entryDx=0;entryDy=0;exitX=0.25;exitY=1;exitDx=0;exitDy=0;" edge="1" parent="XG-XlW9RPorfaf75TnAM-1" source="N2QzAyiejGj7b37JMif3-3" target="gT43t09qGAdpZJtZd_hw-32">
                    <mxGeometry width="50" height="50" relative="1" as="geometry">
                        <mxPoint x="170" y="780" as="sourcePoint"/>
                        <mxPoint x="220" y="730" as="targetPoint"/>
                    </mxGeometry>
                </mxCell>
                <mxCell id="N2QzAyiejGj7b37JMif3-6" value="&lt;font style=&quot;font-size: 14px&quot;&gt;Response&lt;/font&gt;" style="text;html=1;strokeColor=none;fillColor=none;align=center;verticalAlign=middle;whiteSpace=wrap;rounded=0;" vertex="1" parent="XG-XlW9RPorfaf75TnAM-1">
                    <mxGeometry x="243" y="815" width="90" height="20" as="geometry"/>
                </mxCell>
            </root>
        </mxGraphModel>
    </diagram>
</mxfile>